<svg width="280" height="80" viewBox="0 0 280 80" fill="none" xmlns="http://www.w3.org/2000/svg">
<rect width="280" height="80" fill="#7000FF"/>
<path d="M35.2578 23.875H41.2109L49.9766 48.9297L58.7422 23.875H64.6953L52.3672 58H47.5859L35.2578 23.875ZM32.0469 23.875H37.9766L39.0547 48.2969V58H32.0469V23.875ZM61.9766 23.875H67.9297V58H60.8984V48.2969L61.9766 23.875ZM80.7969 32.6406V58H74.0234V32.6406H80.7969ZM73.6016 26.0312C73.6016 25.0469 73.9453 24.2344 74.6328 23.5938C75.3203 22.9531 76.2422 22.6328 77.3984 22.6328C78.5391 22.6328 79.4531 22.9531 80.1406 23.5938C80.8438 24.2344 81.1953 25.0469 81.1953 26.0312C81.1953 27.0156 80.8438 27.8281 80.1406 28.4688C79.4531 29.1094 78.5391 29.4297 77.3984 29.4297C76.2422 29.4297 75.3203 29.1094 74.6328 28.4688C73.9453 27.8281 73.6016 27.0156 73.6016 26.0312ZM92.9844 38.0547V58H86.2344V32.6406H92.5625L92.9844 38.0547ZM92 44.4297H90.1719C90.1719 42.5547 90.4141 40.8672 90.8984 39.3672C91.3828 37.8516 92.0625 36.5625 92.9375 35.5C93.8125 34.4219 94.8516 33.6016 96.0547 33.0391C97.2734 32.4609 98.6328 32.1719 100.133 32.1719C101.32 32.1719 102.406 32.3438 103.391 32.6875C104.375 33.0312 105.219 33.5781 105.922 34.3281C106.641 35.0781 107.188 36.0703 107.562 37.3047C107.953 38.5391 108.148 40.0469 108.148 41.8281V58H101.352V41.8047C101.352 40.6797 101.195 39.8047 100.883 39.1797C100.57 38.5547 100.109 38.1172 99.5 37.8672C98.9062 37.6016 98.1719 37.4688 97.2969 37.4688C96.3906 37.4688 95.6016 37.6484 94.9297 38.0078C94.2734 38.3672 93.7266 38.8672 93.2891 39.5078C92.8672 40.1328 92.5469 40.8672 92.3281 41.7109C92.1094 42.5547 92 43.4609 92 44.4297ZM120.406 32.6406V58H113.633V32.6406H120.406ZM113.211 26.0312C113.211 25.0469 113.555 24.2344 114.242 23.5938C114.93 22.9531 115.852 22.6328 117.008 22.6328C118.148 22.6328 119.062 22.9531 119.75 23.5938C120.453 24.2344 120.805 25.0469 120.805 26.0312C120.805 27.0156 120.453 27.8281 119.75 28.4688C119.062 29.1094 118.148 29.4297 117.008 29.4297C115.852 29.4297 114.93 29.1094 114.242 28.4688C113.555 27.8281 113.211 27.0156 113.211 26.0312ZM145.391 23.875V58H138.359V23.875H145.391ZM165.828 23.875L152.305 40.7266L144.5 49.1172L143.234 42.4609L148.508 35.2422L157.203 23.875H165.828ZM157.836 58L147.781 42.2266L152.984 37.8672L166.156 58H157.836ZM176.352 23.875V58H169.344V23.875H176.352ZM189.969 23.875V58H182.938V23.875H189.969ZM203.562 38.4531V43.9375H188.047V38.4531H203.562ZM205.203 23.875V29.3828H188.047V23.875H205.203ZM216.758 23.875V58H209.75V23.875H216.758ZM223.344 23.875H236.07C238.68 23.875 240.922 24.2656 242.797 25.0469C244.688 25.8281 246.141 26.9844 247.156 28.5156C248.172 30.0469 248.68 31.9297 248.68 34.1641C248.68 35.9922 248.367 37.5625 247.742 38.875C247.133 40.1719 246.266 41.2578 245.141 42.1328C244.031 42.9922 242.727 43.6797 241.227 44.1953L239 45.3672H227.938L227.891 39.8828H236.117C237.352 39.8828 238.375 39.6641 239.188 39.2266C240 38.7891 240.609 38.1797 241.016 37.3984C241.438 36.6172 241.648 35.7109 241.648 34.6797C241.648 33.5859 241.445 32.6406 241.039 31.8438C240.633 31.0469 240.016 30.4375 239.188 30.0156C238.359 29.5938 237.32 29.3828 236.07 29.3828H230.375V58H223.344V23.875ZM242.422 58L234.641 42.7891L242.07 42.7422L249.945 57.6719V58H242.422Z" fill="white"/>
</svg>
